<?xml version="1.0" encoding="us-ascii" standalone="no"?><svg xmlns="http://www.w3.org/2000/svg" xmlns:xlink="http://www.w3.org/1999/xlink" contentStyleType="text/css" height="288px" preserveAspectRatio="none" style="width:405px;height:288px;background:#FFFFFF;" version="1.1" viewBox="0 0 405 288" width="405px" zoomAndPan="magnify"><defs/><g><text fill="#000000" font-family="sans-serif" font-size="14" font-weight="bold" lengthAdjust="spacing" textLength="377" x="10" y="30.1074">System Sequence Diagram (SSD) - Check shows dates</text><rect fill="#FFFFFF" height="31.291" style="stroke:#181818;stroke-width:1.0;" width="10" x="314.5" y="156.5332"/><line style="stroke:#181818;stroke-width:0.5;stroke-dasharray:5.0,5.0;" x1="97.5" x2="97.5" y1="123.2422" y2="205.8242"/><line style="stroke:#181818;stroke-width:0.5;stroke-dasharray:5.0,5.0;" x1="319.5" x2="319.5" y1="123.2422" y2="205.8242"/><text fill="#000000" font-family="sans-serif" font-size="14" lengthAdjust="spacing" textLength="96" x="46.5" y="119.7285">Representative</text><ellipse cx="97.5" cy="53.1211" fill="#E3E3E3" rx="8" ry="8" style="stroke:#181818;stroke-width:0.5;"/><path d="M97.5,61.1211 L97.5,88.1211 M84.5,69.1211 L110.5,69.1211 M97.5,88.1211 L84.5,103.1211 M97.5,88.1211 L110.5,103.1211 " fill="none" style="stroke:#181818;stroke-width:0.5;"/><text fill="#000000" font-family="sans-serif" font-size="14" lengthAdjust="spacing" textLength="96" x="46.5" y="219.9316">Representative</text><ellipse cx="97.5" cy="231.9453" fill="#E3E3E3" rx="8" ry="8" style="stroke:#181818;stroke-width:0.5;"/><path d="M97.5,239.9453 L97.5,266.9453 M84.5,247.9453 L110.5,247.9453 M97.5,266.9453 L84.5,281.9453 M97.5,266.9453 L110.5,281.9453 " fill="none" style="stroke:#181818;stroke-width:0.5;"/><rect fill="#E3E3E3" height="32.6211" rx="2.5" ry="2.5" style="stroke:#181818;stroke-width:0.5;" width="64" x="287.5" y="89.6211"/><text fill="#000000" font-family="sans-serif" font-size="14" lengthAdjust="spacing" textLength="50" x="294.5" y="111.7285">:System</text><rect fill="#E3E3E3" height="32.6211" rx="2.5" ry="2.5" style="stroke:#181818;stroke-width:0.5;" width="64" x="287.5" y="204.8242"/><text fill="#000000" font-family="sans-serif" font-size="14" lengthAdjust="spacing" textLength="50" x="294.5" y="226.9316">:System</text><rect fill="#FFFFFF" height="31.291" style="stroke:#181818;stroke-width:1.0;" width="10" x="314.5" y="156.5332"/><polygon fill="#181818" points="302.5,152.5332,312.5,156.5332,302.5,160.5332,306.5,156.5332" style="stroke:#181818;stroke-width:1.0;"/><line style="stroke:#181818;stroke-width:1.0;" x1="97.5" x2="308.5" y1="156.5332" y2="156.5332"/><text fill="#000000" font-family="sans-serif" font-size="13" font-weight="bold" lengthAdjust="spacing" textLength="7" x="104.5" y="151.2705">1</text><text fill="#000000" font-family="sans-serif" font-size="13" lengthAdjust="spacing" textLength="187" x="115.5" y="151.2705">Request list of scheduled shows</text><polygon fill="#181818" points="108.5,183.8242,98.5,187.8242,108.5,191.8242,104.5,187.8242" style="stroke:#181818;stroke-width:1.0;"/><line style="stroke:#181818;stroke-width:1.0;stroke-dasharray:2.0,2.0;" x1="102.5" x2="318.5" y1="187.8242" y2="187.8242"/><text fill="#000000" font-family="sans-serif" font-size="13" font-weight="bold" lengthAdjust="spacing" textLength="7" x="114.5" y="182.5615">2</text><text fill="#000000" font-family="sans-serif" font-size="13" lengthAdjust="spacing" textLength="182" x="125.5" y="182.5615">Display list of scheduled shows</text><!--SRC=[TOz1RiCm30JlUWNXKthm1tpefUa7BFG1hBIn1SkIAz89_FlASHeK1NeX271tTYbJI0iNdcdEARknv1caPOMHvsLXD_40gri45JZbDCJV0XdPvrj80rqu2epHe5LgDr7CPF6r8ZdGEV2moq_Mdb-efRSHRghcV1Foh11Zs6akrFHO2WH9MSCL3R7GXttlJOtJuCB2IQdf3lxzUgpLlsfEw_o9OipkeFRrfqP7_Lv4b6Ae8rz8t0Y_HlYZmnuUhhN7a_PmjXLoXtNr1LaYR_yYFFv2lW40]--></g></svg>