<?xml version="1.0" encoding="us-ascii" standalone="no"?><svg xmlns="http://www.w3.org/2000/svg" xmlns:xlink="http://www.w3.org/1999/xlink" contentStyleType="text/css" height="575px" preserveAspectRatio="none" style="width:1129px;height:575px;background:#FFFFFF;" version="1.1" viewBox="0 0 1129 575" width="1129px" zoomAndPan="magnify"><defs/><g><!--cluster AppLayer--><g id="cluster_AppLayer"><path d="M8.5,6.0137 L78.5,6.0137 A3.75,3.75 0 0 1 81,8.5137 L88,30.6348 L543.5,30.6348 A2.5,2.5 0 0 1 546,33.1348 L546,210.5137 A2.5,2.5 0 0 1 543.5,213.0137 L8.5,213.0137 A2.5,2.5 0 0 1 6,210.5137 L6,8.5137 A2.5,2.5 0 0 1 8.5,6.0137 " fill="none" style="stroke:#000000;stroke-width:1.5;"/><line style="stroke:#000000;stroke-width:1.5;" x1="6" x2="88" y1="30.6348" y2="30.6348"/><text fill="#000000" font-family="sans-serif" font-size="14" font-weight="bold" lengthAdjust="spacing" textLength="69" x="10" y="23.1211">App Layer</text></g><!--cluster CoreLayer--><g id="cluster_CoreLayer"><path d="M718.5,253.0137 L795.5,253.0137 A3.75,3.75 0 0 1 798,255.5137 L805,277.6348 L892.5,277.6348 A2.5,2.5 0 0 1 895,280.1348 L895,466.5137 A2.5,2.5 0 0 1 892.5,469.0137 L718.5,469.0137 A2.5,2.5 0 0 1 716,466.5137 L716,255.5137 A2.5,2.5 0 0 1 718.5,253.0137 " fill="none" style="stroke:#000000;stroke-width:1.5;"/><line style="stroke:#000000;stroke-width:1.5;" x1="716" x2="805" y1="277.6348" y2="277.6348"/><text fill="#000000" font-family="sans-serif" font-size="14" font-weight="bold" lengthAdjust="spacing" textLength="76" x="720" y="270.1211">Core Layer</text></g><!--cluster InfrastructureLayer--><g id="cluster_InfrastructureLayer"><path d="M220.5,253.0137 L360.5,253.0137 A3.75,3.75 0 0 1 363,255.5137 L370,277.6348 L639.5,277.6348 A2.5,2.5 0 0 1 642,280.1348 L642,466.5137 A2.5,2.5 0 0 1 639.5,469.0137 L220.5,469.0137 A2.5,2.5 0 0 1 218,466.5137 L218,255.5137 A2.5,2.5 0 0 1 220.5,253.0137 " fill="none" style="stroke:#000000;stroke-width:1.5;"/><line style="stroke:#000000;stroke-width:1.5;" x1="218" x2="370" y1="277.6348" y2="277.6348"/><text fill="#000000" font-family="sans-serif" font-size="14" font-weight="bold" lengthAdjust="spacing" textLength="139" x="222" y="270.1211">Infrastructure Layer</text></g><!--cluster FrameworkLayer--><g id="cluster_FrameworkLayer"><path d="M937.5,361.0137 L1058.5,361.0137 A3.75,3.75 0 0 1 1061,363.5137 L1068,385.6348 L1119.5,385.6348 A2.5,2.5 0 0 1 1122,388.1348 L1122,565.5137 A2.5,2.5 0 0 1 1119.5,568.0137 L937.5,568.0137 A2.5,2.5 0 0 1 935,565.5137 L935,363.5137 A2.5,2.5 0 0 1 937.5,361.0137 " fill="none" style="stroke:#000000;stroke-width:1.5;"/><line style="stroke:#000000;stroke-width:1.5;" x1="935" x2="1068" y1="385.6348" y2="385.6348"/><text fill="#000000" font-family="sans-serif" font-size="14" font-weight="bold" lengthAdjust="spacing" textLength="120" x="939" y="378.1211">Framework Layer</text></g><!--entity app.bootstrap--><g id="elem_app.bootstrap"><rect fill="#1E90FF" height="38.6211" rx="2.5" ry="2.5" style="stroke:#000000;stroke-width:0.5;" width="108" x="395" y="51.0137"/><text fill="#FFFFFF" font-family="sans-serif" font-size="14" lengthAdjust="spacing" textLength="88" x="405" y="76.1211">app.bootstrap</text></g><!--entity app.backoffice--><g id="elem_app.backoffice"><rect fill="#1E90FF" height="38.6211" rx="2.5" ry="2.5" style="stroke:#000000;stroke-width:0.5;" width="112" x="248" y="51.0137"/><text fill="#FFFFFF" font-family="sans-serif" font-size="14" lengthAdjust="spacing" textLength="92" x="258" y="76.1211">app.backoffice</text></g><!--entity app.pos--><g id="elem_app.pos"><rect fill="#1E90FF" height="38.6211" rx="2.5" ry="2.5" style="stroke:#000000;stroke-width:0.5;" width="71" x="141.5" y="51.0137"/><text fill="#FFFFFF" font-family="sans-serif" font-size="14" lengthAdjust="spacing" textLength="51" x="151.5" y="76.1211">app.pos</text></g><!--entity app.user--><g id="elem_app.user"><rect fill="#1E90FF" height="38.6211" rx="2.5" ry="2.5" style="stroke:#000000;stroke-width:0.5;" width="76" x="30" y="51.0137"/><text fill="#FFFFFF" font-family="sans-serif" font-size="14" lengthAdjust="spacing" textLength="56" x="40" y="76.1211">app.user</text></g><!--entity app.common--><g id="elem_app.common"><rect fill="#1E90FF" height="38.6211" rx="2.5" ry="2.5" style="stroke:#000000;stroke-width:0.5;" width="101" x="126.5" y="150.0137"/><text fill="#FFFFFF" font-family="sans-serif" font-size="14" lengthAdjust="spacing" textLength="81" x="136.5" y="175.1211">app.common</text></g><!--entity bootstrap.core--><g id="elem_bootstrap.core"><rect fill="#1E90FF" height="38.6211" rx="2.5" ry="2.5" style="stroke:#000000;stroke-width:0.5;" width="112" x="740" y="298.0137"/><text fill="#FFFFFF" font-family="sans-serif" font-size="14" lengthAdjust="spacing" textLength="92" x="750" y="323.1211">bootstrap.core</text></g><!--entity core--><g id="elem_core"><rect fill="#1E90FF" height="38.6211" rx="2.5" ry="2.5" style="stroke:#000000;stroke-width:0.5;" width="48" x="740" y="406.0137"/><text fill="#FFFFFF" font-family="sans-serif" font-size="14" lengthAdjust="spacing" textLength="28" x="750" y="431.1211">core</text></g><!--entity infrastructure.application--><g id="elem_infrastructure.application"><rect fill="#1E90FF" height="38.6211" rx="2.5" ry="2.5" style="stroke:#000000;stroke-width:0.5;" width="176" x="423" y="298.0137"/><text fill="#FFFFFF" font-family="sans-serif" font-size="14" lengthAdjust="spacing" textLength="156" x="433" y="323.1211">infrastructure.application</text></g><!--entity persistence.impl.inmemory--><g id="elem_persistence.impl.inmemory"><rect fill="#1E90FF" height="38.6211" rx="2.5" ry="2.5" style="stroke:#000000;stroke-width:0.5;" width="187" x="242.5" y="406.0137"/><text fill="#FFFFFF" font-family="sans-serif" font-size="14" lengthAdjust="spacing" textLength="167" x="252.5" y="431.1211">persistence.impl.inmemory</text></g><!--entity persistence.impl.jpa--><g id="elem_persistence.impl.jpa"><rect fill="#1E90FF" height="38.6211" rx="2.5" ry="2.5" style="stroke:#000000;stroke-width:0.5;" width="145" x="464.5" y="406.0137"/><text fill="#FFFFFF" font-family="sans-serif" font-size="14" lengthAdjust="spacing" textLength="125" x="474.5" y="431.1211">persistence.impl.jpa</text></g><!--entity eapli.framework--><g id="elem_eapli.framework"><rect fill="#1E90FF" height="38.6211" rx="2.5" ry="2.5" style="stroke:#000000;stroke-width:0.5;" width="119" x="978.5" y="406.0137"/><text fill="#FFFFFF" font-family="sans-serif" font-size="14" lengthAdjust="spacing" textLength="99" x="988.5" y="431.1211">eapli.framework</text></g><!--entity util--><g id="elem_util"><rect fill="#1E90FF" height="38.6211" rx="2.5" ry="2.5" style="stroke:#000000;stroke-width:0.5;" width="38" x="1019" y="505.0137"/><text fill="#FFFFFF" font-family="sans-serif" font-size="14" lengthAdjust="spacing" textLength="18" x="1029" y="530.1211">util</text></g><!--link AppLayer to core--><g id="link_AppLayer_core"><path d="M546.1276,83.0979 C546.4949,83.6234 546.8733,84.1649 547.2625,84.722 C548.0409,85.8362 548.8623,87.013 549.7245,88.2493 C556.6222,98.1393 566.1281,111.8337 577.0487,127.7412 C598.89,159.5562 626.39,200.2237 650,237.0137 C689.2,298.0937 730.146,366.9232 750.086,400.7932 " fill="none" id="AppLayer-to-core" style="stroke:#181818;stroke-width:1.0;stroke-dasharray:7.0,7.0;"/><polygon fill="#181818" points="753.13,405.9637,752.011,396.1786,750.5933,401.6549,745.117,400.2372,753.13,405.9637" style="stroke:#181818;stroke-width:1.0;"/></g><!--link AppLayer to infrastructure.application--><g id="link_AppLayer_infrastructure.application"><path d="M522.2925,214.0471 C522.2066,214.8259 522.1209,215.6036 522.0353,216.38 C521.8642,217.9329 521.6936,219.4808 521.5236,221.0227 C520.8438,227.1903 520.1746,233.2617 519.5233,239.1702 C516.9181,262.8043 515.2578,277.8673 513.6978,292.0098 " fill="none" id="AppLayer-to-infrastructure.application" style="stroke:#181818;stroke-width:1.0;stroke-dasharray:7.0,7.0;"/><polygon fill="#181818" points="513.04,297.9737,518.0027,289.4665,513.5882,293.0038,510.0509,288.5894,513.04,297.9737" style="stroke:#181818;stroke-width:1.0;"/></g><!--link InfrastructureLayer to core--><g id="link_InfrastructureLayer_core"><path d="M642.1843,325.1925 C642.2787,325.2694 642.3737,325.3468 642.4695,325.4249 C642.661,325.581 642.8553,325.7394 643.0524,325.9001 C643.4465,326.2214 643.8517,326.5518 644.2676,326.8908 C645.0994,327.569 645.974,328.282 646.8884,329.0274 C654.2038,334.9912 664.0688,343.0337 674.985,351.9337 C696.8175,369.7337 718.2055,387.1713 736.4605,402.0613 " fill="none" id="InfrastructureLayer-to-core" style="stroke:#181818;stroke-width:1.0;stroke-dasharray:7.0,7.0;"/><polygon fill="#181818" points="741.11,405.8537,736.6641,397.0654,737.2354,402.6933,731.6075,403.2647,741.11,405.8537" style="stroke:#181818;stroke-width:1.0;"/></g><!--link CoreLayer to FrameworkLayer--><g id="link_CoreLayer_FrameworkLayer"><path d="M895.0643,333.7803 C895.1414,333.9262 895.2189,334.0729 895.2968,334.2204 C895.6085,334.8104 895.9269,335.4129 896.2514,336.0271 C901.4441,345.8549 908.2281,358.6949 915.0113,371.5337 C921.7944,384.3724 928.5766,397.2099 933.7655,407.0327 C934.0898,407.6467 934.4079,408.2488 934.7193,408.8384 C934.7972,408.9859 932.0722,403.8272 932.1492,403.973 " fill="none" id="CoreLayer-to-FrameworkLayer" style="stroke:#181818;stroke-width:1.0;stroke-dasharray:7.0,7.0;"/><polygon fill="#181818" points="934.9517,409.2783,934.2849,399.4521,932.6163,404.8572,927.2111,403.1887,934.9517,409.2783" style="stroke:#181818;stroke-width:1.0;"/></g><!--link app.bootstrap to bootstrap.core--><g id="link_app.bootstrap_bootstrap.core"><path d="M475.37,90.1337 C539.9,135.6937 700.2887,248.9328 764.7687,294.4628 " fill="none" id="app.bootstrap-to-bootstrap.core" style="stroke:#181818;stroke-width:1.0;stroke-dasharray:7.0,7.0;"/><polygon fill="#181818" points="769.67,297.9237,764.6253,289.4649,765.5856,295.0396,760.0108,295.9999,769.67,297.9237" style="stroke:#181818;stroke-width:1.0;"/></g><!--link app.pos to app.common--><g id="link_app.pos_app.common"><path d="M177,90.2137 C177,107.3937 177,126.7137 177,143.8637 " fill="none" id="app.pos-to-app.common" style="stroke:#181818;stroke-width:1.0;stroke-dasharray:7.0,7.0;"/><polygon fill="#181818" points="177,149.8637,181,140.8637,177,144.8637,173,140.8637,177,149.8637" style="stroke:#181818;stroke-width:1.0;"/></g><!--link app.backoffice to app.common--><g id="link_app.backoffice_app.common"><path d="M279.51,90.2137 C257.02,107.3937 228.6495,129.0734 206.1795,146.2234 " fill="none" id="app.backoffice-to-app.common" style="stroke:#181818;stroke-width:1.0;stroke-dasharray:7.0,7.0;"/><polygon fill="#181818" points="201.41,149.8637,210.9911,147.5829,205.3846,146.8301,206.1374,141.2236,201.41,149.8637" style="stroke:#181818;stroke-width:1.0;"/></g><!--link app.user to app.common--><g id="link_app.user_app.common"><path d="M89.02,90.2137 C108.32,107.3937 132.287,128.7259 151.567,145.8759 " fill="none" id="app.user-to-app.common" style="stroke:#181818;stroke-width:1.0;stroke-dasharray:7.0,7.0;"/><polygon fill="#181818" points="156.05,149.8637,151.9839,140.8933,152.3141,146.5405,146.6669,146.8707,156.05,149.8637" style="stroke:#181818;stroke-width:1.0;"/></g><!--link bootstrap.core to core--><g id="link_bootstrap.core_core"><path d="M790.28,337.4637 C784.45,356.7537 777.2153,380.7501 771.4053,399.9801 " fill="none" id="bootstrap.core-to-core" style="stroke:#181818;stroke-width:1.0;stroke-dasharray:7.0,7.0;"/><polygon fill="#181818" points="769.67,405.7237,776.102,398.2652,771.1161,400.9374,768.4439,395.9514,769.67,405.7237" style="stroke:#181818;stroke-width:1.0;"/></g><!--link infrastructure.application to persistence.impl.inmemory--><g id="link_infrastructure.application_persistence.impl.inmemory"><path d="M462.9,337.0137 C457.45,339.5237 452.05,342.2137 447,345.0137 C414.67,362.9737 385.231,384.8353 363.481,402.0853 " fill="none" id="infrastructure.application-to-persistence.impl.inmemory" style="stroke:#181818;stroke-width:1.0;stroke-dasharray:7.0,7.0;"/><polygon fill="#181818" points="358.78,405.8137,368.3171,403.3551,362.6975,402.7067,363.3459,397.0871,358.78,405.8137" style="stroke:#181818;stroke-width:1.0;"/></g><!--link infrastructure.application to persistence.impl.jpa--><g id="link_infrastructure.application_persistence.impl.jpa"><path d="M515.65,337.4637 C520.38,356.7537 526.2398,380.6666 530.9598,399.8966 " fill="none" id="infrastructure.application-to-persistence.impl.jpa" style="stroke:#181818;stroke-width:1.0;stroke-dasharray:7.0,7.0;"/><polygon fill="#181818" points="532.39,405.7237,534.1293,396.0296,531.1981,400.8678,526.3599,397.9366,532.39,405.7237" style="stroke:#181818;stroke-width:1.0;"/></g><!--link eapli.framework to util--><g id="link_eapli.framework_util"><path d="M1038,445.2137 C1038,462.3937 1038,481.7137 1038,498.8637 " fill="none" id="eapli.framework-to-util" style="stroke:#181818;stroke-width:1.0;"/><polygon fill="#181818" points="1038,504.8637,1042,495.8637,1038,499.8637,1034,495.8637,1038,504.8637" style="stroke:#181818;stroke-width:1.0;"/></g><!--SRC=[bL91RiCW4Bpp2fIUWz9ZBv7Ig9OYzTON4B9EQ0oB5gp8hVhtOfmwnYAjocrdXjs1MN_MracIXgj6Uhy9WVI-3R1JQD_q1_0LE-a3S30kTDo0sGDvnlnuZK05QOyDy4_6utcMwdmaRErXYmqIVtXyULfLrS0X7O2k-2gTX5Temu1UJZe0-sBCnJRo27onSOw_oWvemQNdiKh5TTXjk7HEx1633oHTYOlziAwrWWBfq1VGrWCLO8N6eCqyRf5WOh8loov7Xx4BpPqaQDfsPskIKTwgq6O3Sg8yIcSQ4PqtMicWe_LSw6AWsWUm2eGshX7QnfYHkhzqxqvcTgku3d11Ea-SZbZP9CZeIjG_eXdR1jtq4yRGXLWFlpH18lJBKqi_DNQvvTH3kLN6ierAYbbwryr9r6GnycqhiVrYpV6yzytZ_RSbpVtm_dknJtCM1rykrqC8tm00]--></g></svg>