<svg xmlns="http://www.w3.org/2000/svg" xmlns:xlink="http://www.w3.org/1999/xlink" contentStyleType="text/css" height="445px" preserveAspectRatio="none" style="width:410px;height:445px;background:#FFFFFF;" version="1.1" viewBox="0 0 410 445" width="410px" zoomAndPan="magnify"><title>System Sequence Diagram (SSD) - Create Show Proposal</title><defs/><g><text fill="#000000" font-family="sans-serif" font-size="14" font-weight="bold" lengthAdjust="spacing" textLength="382.7783" x="10" y="30.1074">System Sequence Diagram (SSD) - Create Show Proposal</text><rect fill="#FFFFFF" height="31.291" style="stroke:#181818;stroke-width:1.0;" width="10" x="328.2649" y="156.5332"/><rect fill="#FFFFFF" height="31.291" style="stroke:#181818;stroke-width:1.0;" width="10" x="328.2649" y="219.1152"/><rect fill="#FFFFFF" height="62.582" style="stroke:#181818;stroke-width:1.0;" width="10" x="328.2649" y="281.6973"/><line style="stroke:#181818;stroke-width:0.5;stroke-dasharray:5.0,5.0;" x1="97.2307" x2="97.2307" y1="123.2422" y2="362.2793"/><line style="stroke:#181818;stroke-width:0.5;stroke-dasharray:5.0,5.0;" x1="332.9822" x2="332.9822" y1="123.2422" y2="362.2793"/><text fill="#000000" font-family="sans-serif" font-size="14" lengthAdjust="spacing" textLength="112.0342" x="38.2307" y="119.7285">CRM Collaborator</text><ellipse cx="97.2478" cy="53.1211" fill="#E3E3E3" rx="8" ry="8" style="stroke:#181818;stroke-width:0.5;"/><path d="M97.2478,61.1211 L97.2478,88.1211 M84.2478,69.1211 L110.2478,69.1211 M97.2478,88.1211 L84.2478,103.1211 M97.2478,88.1211 L110.2478,103.1211 " fill="none" style="stroke:#181818;stroke-width:0.5;"/><text fill="#000000" font-family="sans-serif" font-size="14" lengthAdjust="spacing" textLength="112.0342" x="38.2307" y="376.3867">CRM Collaborator</text><ellipse cx="97.2478" cy="388.4004" fill="#E3E3E3" rx="8" ry="8" style="stroke:#181818;stroke-width:0.5;"/><path d="M97.2478,396.4004 L97.2478,423.4004 M84.2478,404.4004 L110.2478,404.4004 M97.2478,423.4004 L84.2478,438.4004 M97.2478,423.4004 L110.2478,438.4004 " fill="none" style="stroke:#181818;stroke-width:0.5;"/><rect fill="#E3E3E3" height="32.6211" rx="2.5" ry="2.5" style="stroke:#181818;stroke-width:0.5;" width="64.5654" x="300.9822" y="89.6211"/><text fill="#000000" font-family="sans-serif" font-size="14" lengthAdjust="spacing" textLength="50.5654" x="307.9822" y="111.7285">:System</text><rect fill="#E3E3E3" height="32.6211" rx="2.5" ry="2.5" style="stroke:#181818;stroke-width:0.5;" width="64.5654" x="300.9822" y="361.2793"/><text fill="#000000" font-family="sans-serif" font-size="14" lengthAdjust="spacing" textLength="50.5654" x="307.9822" y="383.3867">:System</text><rect fill="#FFFFFF" height="31.291" style="stroke:#181818;stroke-width:1.0;" width="10" x="328.2649" y="156.5332"/><rect fill="#FFFFFF" height="31.291" style="stroke:#181818;stroke-width:1.0;" width="10" x="328.2649" y="219.1152"/><rect fill="#FFFFFF" height="62.582" style="stroke:#181818;stroke-width:1.0;" width="10" x="328.2649" y="281.6973"/><polygon fill="#181818" points="316.2649,152.5332,326.2649,156.5332,316.2649,160.5332,320.2649,156.5332" style="stroke:#181818;stroke-width:1.0;"/><line style="stroke:#181818;stroke-width:1.0;" x1="97.2478" x2="322.2649" y1="156.5332" y2="156.5332"/><text fill="#000000" font-family="sans-serif" font-size="13" font-weight="bold" lengthAdjust="spacing" textLength="7.23" x="104.2478" y="151.2705">1</text><text fill="#000000" font-family="sans-serif" font-size="13" lengthAdjust="spacing" textLength="121.4116" x="115.4778" y="151.2705">Send Show Proposal</text><polygon fill="#181818" points="108.2478,183.8242,98.2478,187.8242,108.2478,191.8242,104.2478,187.8242" style="stroke:#181818;stroke-width:1.0;"/><line style="stroke:#181818;stroke-width:1.0;stroke-dasharray:2.0,2.0;" x1="102.2478" x2="332.2649" y1="187.8242" y2="187.8242"/><text fill="#000000" font-family="sans-serif" font-size="13" font-weight="bold" lengthAdjust="spacing" textLength="7.23" x="114.2478" y="182.5615">2</text><text fill="#000000" font-family="sans-serif" font-size="13" lengthAdjust="spacing" textLength="160.4116" x="125.4778" y="182.5615">Show list of show proposals</text><polygon fill="#181818" points="316.2649,215.1152,326.2649,219.1152,316.2649,223.1152,320.2649,219.1152" style="stroke:#181818;stroke-width:1.0;"/><line style="stroke:#181818;stroke-width:1.0;" x1="97.2478" x2="322.2649" y1="219.1152" y2="219.1152"/><text fill="#000000" font-family="sans-serif" font-size="13" font-weight="bold" lengthAdjust="spacing" textLength="7.23" x="104.2478" y="213.8525">3</text><text fill="#000000" font-family="sans-serif" font-size="13" lengthAdjust="spacing" textLength="123.5698" x="115.4778" y="213.8525">Select show proposal</text><polygon fill="#181818" points="108.2478,246.4063,98.2478,250.4063,108.2478,254.4063,104.2478,250.4063" style="stroke:#181818;stroke-width:1.0;"/><line style="stroke:#181818;stroke-width:1.0;stroke-dasharray:2.0,2.0;" x1="102.2478" x2="332.2649" y1="250.4063" y2="250.4063"/><text fill="#000000" font-family="sans-serif" font-size="13" font-weight="bold" lengthAdjust="spacing" textLength="7.23" x="114.2478" y="245.1436">4</text><text fill="#000000" font-family="sans-serif" font-size="13" lengthAdjust="spacing" textLength="135.1606" x="125.4778" y="245.1436">Show language options</text><polygon fill="#181818" points="316.2649,277.6973,326.2649,281.6973,316.2649,285.6973,320.2649,281.6973" style="stroke:#181818;stroke-width:1.0;"/><line style="stroke:#181818;stroke-width:1.0;" x1="97.2478" x2="322.2649" y1="281.6973" y2="281.6973"/><text fill="#000000" font-family="sans-serif" font-size="13" font-weight="bold" lengthAdjust="spacing" textLength="7.23" x="104.2478" y="276.4346">5</text><text fill="#000000" font-family="sans-serif" font-size="13" lengthAdjust="spacing" textLength="93.2407" x="115.4778" y="276.4346">Select language</text><polygon fill="#181818" points="316.2649,308.9883,326.2649,312.9883,316.2649,316.9883,320.2649,312.9883" style="stroke:#181818;stroke-width:1.0;"/><line style="stroke:#181818;stroke-width:1.0;" x1="97.2478" x2="322.2649" y1="312.9883" y2="312.9883"/><text fill="#000000" font-family="sans-serif" font-size="13" font-weight="bold" lengthAdjust="spacing" textLength="7.23" x="104.2478" y="307.7256">6</text><text fill="#000000" font-family="sans-serif" font-size="13" lengthAdjust="spacing" textLength="135.1226" x="115.4778" y="307.7256">Select template version</text><polygon fill="#181818" points="108.2478,340.2793,98.2478,344.2793,108.2478,348.2793,104.2478,344.2793" style="stroke:#181818;stroke-width:1.0;"/><line style="stroke:#181818;stroke-width:1.0;stroke-dasharray:2.0,2.0;" x1="102.2478" x2="332.2649" y1="344.2793" y2="344.2793"/><text fill="#000000" font-family="sans-serif" font-size="13" font-weight="bold" lengthAdjust="spacing" textLength="7.23" x="114.2478" y="339.0166">7</text><text fill="#000000" font-family="sans-serif" font-size="13" lengthAdjust="spacing" textLength="195.7871" x="125.4778" y="339.0166">Display success message or error</text><!--SRC=[bP5DRW8n38NtEON5gbrm0HRT35rMgXZr02QO8I8J1zi3cjlN353rXmNTH4dyFhyNH_UfL1JieUV2SIVS4vWC5FIhKZ7kiQFMnamW50rBbxyBT8SRFgNImHQpKWYMpANjg4Ozj7GOg4I2PSBkB7zgs-KppA4HGdFPZa_mBbnPCOU0qLXWrgpUeE6SSSs2VZC3LFXeNrV1FIt5LB4Op1ONawbwsNg7mRWC_PeaX3C1yvTRbeMdAPjVbkwOZbEIQuEhUExSn2ykG4vgm5j_hX_gbTQmeJyDxhXcdzjFyd5Vd_VW7m1SBN7vb-ED3GyJVgZvB3oIgDlTYxLCwfeHT8YHLA7tPGeeG28iTn9-0W00]--></g></svg>